<svg width="512" height="512" viewBox="0 0 512 512" fill="none" xmlns="http://www.w3.org/2000/svg">
<g clip-path="url(#clip0)">
<path d="M437.333 426.666C435.584 426.666 433.835 426.368 432.171 425.813L10.8373 281.813C4.77864 279.722 0.554644 274.261 0.0426441 267.882C-0.426689 261.504 2.92264 255.445 8.57598 252.48L488.576 1.8131C493.931 -0.9389 500.395 -0.512234 505.259 2.9651C510.165 6.46377 512.704 12.3944 511.829 18.3678L453.163 413.034C452.459 417.728 449.707 421.866 445.632 424.341C443.115 425.877 440.235 426.666 437.333 426.666V426.666ZM56.448 263.573L424.32 389.312L475.541 44.7358L56.448 263.573Z" fill="#bbbbbb"/>
<path d="M202.667 490.668C201.003 490.668 199.317 490.412 197.696 489.878C191.104 487.702 186.667 481.58 186.667 474.668V330.668C186.667 326.636 188.203 322.71 190.955 319.745L484.288 5.07822C490.304 -1.40711 500.48 -1.72711 506.923 4.28889C513.387 10.3049 513.728 20.4382 507.712 26.9236L218.667 336.961V425.878L272.064 353.196C277.291 346.113 287.317 344.534 294.443 349.782C301.568 355.009 303.083 365.036 297.856 372.161L215.573 484.161C212.48 488.321 207.659 490.668 202.667 490.668V490.668Z" fill="#bbbbbb"/>
</g>
<defs>
<clipPath id="clip0">
<rect width="512" height="512" fill="white"/>
</clipPath>
</defs>
</svg>
