<svg width="549" height="549" viewBox="0 0 549 549" fill="none" xmlns="http://www.w3.org/2000/svg">
<g clip-path="url(#clip0)">
<path d="M545.451 400.298C544.787 398.867 544.168 397.68 543.593 396.729C534.079 379.594 515.898 358.562 489.061 333.627L488.494 333.056L488.21 332.776L487.923 332.489H487.635C475.455 320.878 467.742 313.071 464.512 309.074C458.602 301.46 457.278 293.753 460.508 285.944C462.79 280.044 471.362 267.584 486.204 248.547C494.011 238.458 500.194 230.372 504.76 224.28C537.691 180.5 551.968 152.524 547.588 140.341L545.887 137.494C544.744 135.78 541.794 134.212 537.041 132.782C532.277 131.355 526.188 131.119 518.763 132.07L436.539 132.638C435.207 132.166 433.305 132.21 430.827 132.782C428.352 133.354 427.114 133.641 427.114 133.641L425.683 134.356L424.547 135.215C423.595 135.783 422.548 136.782 421.405 138.21C420.268 139.633 419.317 141.303 418.557 143.206C409.605 166.237 399.427 187.65 388.004 207.444C380.961 219.247 374.493 229.476 368.586 238.137C362.687 246.795 357.738 253.174 353.744 257.263C349.744 261.356 346.134 264.635 342.892 267.112C339.655 269.59 337.184 270.637 335.473 270.254C333.758 269.871 332.143 269.491 330.614 269.111C327.951 267.397 325.809 265.066 324.194 262.116C322.572 259.166 321.48 255.453 320.909 250.98C320.341 246.504 320.005 242.654 319.909 239.417C319.82 236.184 319.861 231.611 320.054 225.711C320.252 219.808 320.341 215.814 320.341 213.72C320.341 206.486 320.482 198.635 320.765 190.165C321.053 181.695 321.286 174.984 321.481 170.04C321.675 165.091 321.765 159.855 321.765 154.335C321.765 148.815 321.429 144.486 320.765 141.344C320.109 138.206 319.102 135.16 317.775 132.207C316.44 129.257 314.486 126.975 311.922 125.355C309.353 123.737 306.159 122.453 302.358 121.499C292.269 119.216 279.422 117.981 263.811 117.789C228.41 117.409 205.663 119.695 195.575 124.644C191.578 126.735 187.961 129.592 184.727 133.206C181.3 137.395 180.822 139.681 183.296 140.057C194.718 141.768 202.804 145.861 207.563 152.332L209.278 155.761C210.612 158.235 211.944 162.615 213.277 168.895C214.608 175.175 215.467 182.122 215.845 189.732C216.795 203.629 216.795 215.525 215.845 225.421C214.892 235.321 213.992 243.028 213.133 248.548C212.274 254.068 210.99 258.541 209.278 261.966C207.563 265.392 206.422 267.486 205.85 268.246C205.279 269.006 204.803 269.485 204.425 269.673C201.951 270.621 199.378 271.104 196.715 271.104C194.048 271.104 190.814 269.77 187.008 267.104C183.203 264.438 179.254 260.776 175.161 256.112C171.068 251.447 166.452 244.928 161.311 236.554C156.174 228.18 150.844 218.283 145.324 206.863L140.757 198.581C137.902 193.253 134.002 185.495 129.053 175.314C124.101 165.129 119.724 155.277 115.919 145.76C114.398 141.763 112.113 138.72 109.068 136.626L107.639 135.767C106.689 135.007 105.164 134.2 103.072 133.34C100.977 132.481 98.791 131.865 96.505 131.486L18.276 132.054C10.282 132.054 4.858 133.865 2.002 137.482L0.859 139.193C0.288 140.146 0 141.668 0 143.763C0 145.857 0.571 148.427 1.714 151.47C13.134 178.31 25.553 204.195 38.971 229.129C52.389 254.063 64.049 274.148 73.944 289.366C83.841 304.595 93.929 318.968 104.208 332.478C114.487 345.993 121.291 354.654 124.62 358.459C127.953 362.271 130.571 365.121 132.474 367.024L139.613 373.875C144.181 378.444 150.889 383.916 159.74 390.291C168.593 396.67 178.394 402.95 189.148 409.141C199.904 415.322 212.417 420.366 226.694 424.267C240.969 428.172 254.863 429.739 268.378 428.983H301.212C307.871 428.408 312.916 426.314 316.345 422.7L317.481 421.269C318.245 420.133 318.96 418.368 319.62 415.993C320.288 413.614 320.62 410.993 320.62 408.142C320.425 399.959 321.048 392.584 322.472 386.018C323.895 379.454 325.517 374.505 327.331 371.172C329.144 367.842 331.19 365.032 333.467 362.754C335.749 360.471 337.375 359.088 338.329 358.612C339.277 358.133 340.034 357.808 340.605 357.613C345.173 356.091 350.549 357.565 356.741 362.042C362.928 366.515 368.731 372.038 374.159 378.602C379.584 385.172 386.102 392.543 393.714 400.726C401.331 408.912 407.991 414.997 413.699 419L419.407 422.426C423.219 424.712 428.168 426.806 434.26 428.709C440.341 430.611 445.669 431.087 450.244 430.136L523.331 428.996C530.56 428.996 536.185 427.799 540.175 425.424C544.173 423.045 546.548 420.424 547.314 417.573C548.078 414.719 548.119 411.481 547.459 407.861C546.782 404.25 546.115 401.725 545.451 400.298Z" fill="white"/>
</g>
<defs>
<clipPath id="clip0">
<rect width="548.358" height="548.358" fill="white"/>
</clipPath>
</defs>
</svg>
